<?xml version="1.0" standalone="no"?>
<!DOCTYPE svg PUBLIC "-//W3C//DTD SVG 20010904//EN"
 "http://www.w3.org/TR/2001/REC-SVG-20010904/DTD/svg10.dtd">
<svg version="1.0" xmlns="http://www.w3.org/2000/svg"
 width="128.000000pt" height="128.000000pt" viewBox="0 0 128.000000 128.000000"
 preserveAspectRatio="xMidYMid meet">

<g transform="translate(0.000000,128.000000) scale(0.100000,-0.100000)"
fill="#057a55" stroke="none">
<path d="M523 1235 c-101 -18 -210 -74 -288 -146 -83 -78 -132 -153 -169 -259
-26 -74 -29 -99 -29 -195 0 -96 3 -121 29 -195 37 -106 86 -181 169 -259 109
-101 248 -155 400 -155 152 0 291 54 400 155 83 78 132 153 169 259 26 74 29
99 29 195 0 96 -3 121 -29 195 -37 106 -86 181 -169 259 -80 74 -187 128 -293
147 -93 16 -125 16 -219 -1z m275 -255 c34 -21 62 -72 62 -113 0 -13 -16 -73
-36 -135 -42 -133 -42 -175 -1 -180 57 -7 111 79 120 193 7 83 14 105 34 105
11 0 13 -7 9 -26 -4 -14 1 -82 10 -151 20 -145 12 -215 -31 -289 -52 -89 -163
-127 -219 -75 -66 62 -17 159 69 137 29 -7 44 -49 25 -71 -19 -23 -36 -18 -35
12 0 19 -6 29 -18 31 -48 10 -66 -65 -22 -94 18 -12 38 -15 68 -11 51 7 100
55 116 114 12 42 14 134 5 182 l-6 31 -28 -44 c-51 -80 -109 -98 -157 -50 -23
23 -25 31 -20 78 3 28 17 81 32 116 15 36 29 90 32 122 5 51 3 59 -20 82 -33
33 -94 36 -128 5 l-24 -20 28 5 c42 9 33 -13 -13 -32 -35 -15 -40 -21 -40 -51
0 -19 7 -43 17 -53 34 -37 108 -11 101 36 -2 16 -9 21 -31 19 -15 -1 -27 2
-27 7 0 11 29 40 40 40 20 0 40 -34 40 -66 0 -42 -45 -94 -82 -94 -16 0 -19
-3 -10 -8 7 -5 10 -16 7 -25 -3 -9 -7 -24 -10 -32 -4 -13 -8 -12 -25 5 -15 15
-28 19 -43 14 -31 -9 -31 -6 -12 -79 31 -125 -16 -232 -124 -287 -98 -50 -220
-33 -262 36 -22 37 -25 106 -5 144 31 59 103 102 171 102 50 0 100 -48 91 -88
-10 -43 -69 -92 -111 -92 -44 0 -44 6 0 24 47 20 64 56 41 90 -22 34 -56 41
-99 21 -89 -42 -82 -169 14 -217 46 -24 96 -22 149 5 85 42 111 123 73 232
-16 48 -17 48 -31 27 -8 -12 -18 -22 -23 -22 -15 0 -10 23 10 49 15 20 17 31
9 65 -13 57 -4 111 26 156 l26 39 -46 7 c-25 3 -68 4 -96 2 -42 -4 -57 -11
-80 -37 -32 -36 -37 -84 -11 -113 23 -25 50 -22 78 8 l25 27 0 -25 c0 -30 -32
-74 -60 -83 -23 -7 -76 18 -90 44 -28 53 -1 136 60 180 61 44 133 57 227 43
71 -11 78 -11 97 7 47 44 113 52 164 21z"/>
<path d="M548 873 c-23 -26 -29 -67 -19 -113 5 -23 11 -43 13 -46 2 -2 26 5
54 16 27 10 41 19 32 20 -27 0 -48 40 -48 92 0 51 -8 59 -32 31z"/>
</g>
</svg>
